<?xml version="1.0" encoding="UTF-8" standalone="no"?>
<svg
   version="1.1"
   viewBox="0 0 48 48"
   xml:space="preserve"
   id="svg10"
   xmlns="http://www.w3.org/2000/svg"
   xmlns:svg="http://www.w3.org/2000/svg"><defs
     id="defs6"><style
       id="style2">.a{fill:none;stroke:#fff;stroke-linecap:round;stroke-linejoin:round;}</style><style
       id="style4" /></defs><g
     id="g308"
     transform="matrix(1.0765693,0,0,1.0765693,-1216.2109,-1216.209)"
     style="stroke-width:0.928879"><path
       id="path917"
       style="fill:#000000;fill-opacity:1;stroke:none;stroke-width:0.928879;stroke-linecap:round;stroke-linejoin:round;stroke-dasharray:none"
       class="cls-1"
       d="m 1151.8926,1134.3691 c -2.6531,0 -5.3053,0.8138 -7.5645,2.4414 l -1.748,-1.7734 c -0.8341,-0.8357 -2.1876,-0.8369 -3.0176,0 -0.8301,0.8329 -0.83,2.1756 0,3.0058 l 1.8145,1.7871 c -1.5956,2.2053 -2.458,3.8562 -2.4629,6.5781 v 1.7188 c 0,0.7553 0.6138,1.3672 1.3691,1.3672 h 23.2813 c 0.7422,-0.018 1.3361,-0.6247 1.3359,-1.3672 v -1.7188 c 0.01,-2.723 -0.8421,-4.3794 -2.4297,-6.5917 l 1.8223,-1.8008 c 0.8297,-0.8287 0.8299,-2.1742 0,-3.0078 -0.83,-0.8337 -2.1855,-0.8329 -3.0157,0.01 l -1.8144,1.8008 c -2.2592,-1.6276 -4.9134,-2.4414 -7.5664,-2.4414 z m -6.1641,7.7617 a 2,2 0 0 1 2,2 2,2 0 0 1 -2,2 2,2 0 0 1 -2,-2 2,2 0 0 1 2,-2 z m 12.4121,0 a 2,2 0 0 1 2,2 2,2 0 0 1 -2,2 2,2 0 0 1 -2,-2 2,2 0 0 1 2,-2 z" /><path
       id="path31618"
       style="fill:#000000;fill-opacity:1;stroke:none;stroke-width:0.464438;stroke-linecap:round;stroke-linejoin:round;paint-order:markers fill stroke"
       d="m 1139.9648,1150.4023 c -0.4803,0 -0.875,0.3869 -0.875,0.8672 v 5.2695 c -0.01,4.733 2.4686,9.0266 6.4922,11.3496 4.0237,2.3231 8.9803,2.3231 13.0039,0 4.0237,-2.323 6.5039,-6.6176 6.5039,-11.2636 l -0.019,-5.3555 c 0,-0.4803 -0.3869,-0.8672 -0.8672,-0.8672 z m 10.9571,0.7852 h 2.3672 v 2.0664 h 0.8613 c 0.7273,0 1.3125,0.6004 1.3125,1.3457 v 3.2363 l -0.8613,0.8945 1.7753,3.1485 c 1.2806,-1.1701 2.0352,-2.835 2.0352,-4.6114 h 1.75 c 0,2.4081 -1.0838,4.6652 -2.9062,6.17 l 0.8046,1.4257 0.2442,2.5313 -1.9766,-1.4258 -0.8027,-1.4434 c -2.1476,0.9947 -4.6313,0.9871 -6.7735,-0.023 l -0.7558,1.3574 -1.9805,1.6348 0.1641,-2.6524 3.5293,-6.1542 -0.9317,-0.9571 V 1154.6 c 0,-0.7453 0.5853,-1.3457 1.3125,-1.3457 h 0.8321 z m 0.2343,8.9863 -1.5527,2.793 c 1.6107,0.7239 3.4527,0.7318 5.0684,0.023 l -1.5293,-2.7481 -0.031,0.033 c -0.5112,0.5301 -1.3417,0.5276 -1.8554,0 z" /><circle
       style="fill:none;fill-opacity:1;stroke:#000000;stroke-width:0.928879;stroke-linecap:round;stroke-linejoin:round;stroke-miterlimit:4;stroke-dasharray:none;stroke-opacity:1;paint-order:markers fill stroke"
       id="path6224"
       cx="1152.1276"
       cy="1155.9309"
       r="0.74086958" /></g></svg>
